<mxfile host="app.diagrams.net" agent="Mozilla/5.0 (X11; Ubuntu; Linux x86_64; rv:123.0) Gecko/20100101 Firefox/123.0" version="25.0.1">
  <diagram name="to-be" id="KkLNxIWUcx0tddE59iRF">
    <mxGraphModel dx="5747" dy="2650" grid="0" gridSize="10" guides="1" tooltips="1" connect="1" arrows="1" fold="1" page="0" pageScale="1" pageWidth="827" pageHeight="1169" math="0" shadow="0">
      <root>
        <mxCell id="0" />
        <mxCell id="1" parent="0" />
        <mxCell id="mW3zMy_77x5YiZytnxg1-44" value="ЦОД2" style="verticalAlign=bottom;align=center;overflow=width;vsdxID=5;fillColor=#e3ebff;gradientColor=none;shape=stencil(vVNBDsIgEHwNRwxCjHqu+g9iaUtEaBa09fdSwdpi9dBDb8vOwOwsGcQyW/FaIEqsA3MRjcxdhdgBUSp1JUA6XyF2RCwrDIgSzE3n4VzzjtlVV3PvXmjDPdLdoOQRTrvtavNqnAKXw9mDELkBIhDJaxrJZIy/YRLfbjFvpcVgHHfS6JGu4lAK7GVwoXg5gmwjRP3VjoMpqQcm9tPKs0z0Y6crWcBHqt0PN8tJspXFfmNKdpaBH8tYwML/VPjiE6dCKhXSOMTT+PlWiC47PgE=);strokeColor=none;spacingTop=-3;spacingBottom=-3;spacingLeft=-3;spacingRight=-3;points=[];labelBackgroundColor=none;rounded=0;html=1;whiteSpace=wrap;container=0;" parent="1" vertex="1">
          <mxGeometry x="-182" y="370" width="690" height="639" as="geometry" />
        </mxCell>
        <mxCell id="mW3zMy_77x5YiZytnxg1-60" style="vsdxID=6;fillColor=none;gradientColor=none;shape=stencil(vVNdD4IgFP01POIQms1nq//BEpVF4q6U9u/DoFJxPdjm2/04cO65cBDL2oo3AlHSGtAX0cncVIgdEKWyrgRIYyPEjohlhQZRgr7VucsbPiCH6Krvww29O0eGE5Q8XJaSaPcqnByWw9k2wWNZRFMHhzc+SlwhQHhATDxBj3kvWwzacCN1PSFXHEqBLRcuFC8nrbYTognKfjol65GSNIn28SL5SjGf2efL2UBMwO1nWykl3M1mzxJ8ib/eZHkrG8j47RMbfA1WSKWcP8f9uSFtyZmZHZ8=);strokeColor=#5282ff;spacingTop=-3;spacingBottom=-3;spacingLeft=-3;spacingRight=-3;points=[];labelBackgroundColor=none;rounded=0;html=1;whiteSpace=wrap;container=0;movable=1;resizable=1;rotatable=1;deletable=1;editable=1;locked=0;connectable=1;" parent="1" vertex="1">
          <mxGeometry x="-161" y="397" width="644" height="385" as="geometry" />
        </mxCell>
        <mxCell id="mW3zMy_77x5YiZytnxg1-80" value="" style="vsdxID=5;fillColor=none;gradientColor=none;shape=stencil(vVPLEoIgFP0aljgEVuPa6j+YRGUica6U9vdhUKk4LWzG3X0cOPdcOIilTclrgShpDOiLaGVmSsQOiFJZlQKksRFiR8TSXIMoQN+qzOU175F9dNX3/obOnSP9CUoeLktIFL8KJ4flcLZN8NhtRJiDwxsf7VwhQHjAhniCDvNONhi04UbqakSuOBQCWy6cK16MWk0rRB2U/XRKVgMlSRwl+1nyhWI+s0+Xs4KYgNvPtlBKuJvVniX4En+9yfxWVpDx2yc2+Bosl0o5fw77U0PakjMzOz4B);strokeColor=#ff5958;spacingTop=-3;spacingBottom=-3;spacingLeft=-3;spacingRight=-3;points=[];labelBackgroundColor=none;rounded=0;html=1;whiteSpace=wrap;movable=1;resizable=1;rotatable=1;deletable=1;editable=1;locked=0;connectable=1;" parent="1" vertex="1">
          <mxGeometry x="-11" y="437" width="471" height="125" as="geometry" />
        </mxCell>
        <mxCell id="mW3zMy_77x5YiZytnxg1-88" value="ЦОД1" style="verticalAlign=bottom;align=center;overflow=width;vsdxID=5;fillColor=#e3ebff;gradientColor=none;shape=stencil(vVNBDsIgEHwNRwxCjHqu+g9iaUtEaBa09fdSwdpi9dBDb8vOwOwsGcQyW/FaIEqsA3MRjcxdhdgBUSp1JUA6XyF2RCwrDIgSzE3n4VzzjtlVV3PvXmjDPdLdoOQRTrvtavNqnAKXw9mDELkBIhDJaxrJZIy/YRLfbjFvpcVgHHfS6JGu4lAK7GVwoXg5gmwjRP3VjoMpqQcm9tPKs0z0Y6crWcBHqt0PN8tJspXFfmNKdpaBH8tYwML/VPjiE6dCKhXSOMTT+PlWiC47PgE=);strokeColor=none;spacingTop=-3;spacingBottom=-3;spacingLeft=-3;spacingRight=-3;points=[];labelBackgroundColor=none;rounded=0;html=1;whiteSpace=wrap;container=0;" parent="1" vertex="1">
          <mxGeometry x="-961" y="370" width="690" height="639" as="geometry" />
        </mxCell>
        <mxCell id="mW3zMy_77x5YiZytnxg1-104" style="vsdxID=6;fillColor=none;gradientColor=none;shape=stencil(vVNdD4IgFP01POIQms1nq//BEpVF4q6U9u/DoFJxPdjm2/04cO65cBDL2oo3AlHSGtAX0cncVIgdEKWyrgRIYyPEjohlhQZRgr7VucsbPiCH6Krvww29O0eGE5Q8XJaSaPcqnByWw9k2wWNZRFMHhzc+SlwhQHhATDxBj3kvWwzacCN1PSFXHEqBLRcuFC8nrbYTognKfjol65GSNIn28SL5SjGf2efL2UBMwO1nWykl3M1mzxJ8ib/eZHkrG8j47RMbfA1WSKWcP8f9uSFtyZmZHZ8=);strokeColor=#5282ff;spacingTop=-3;spacingBottom=-3;spacingLeft=-3;spacingRight=-3;points=[];labelBackgroundColor=none;rounded=0;html=1;whiteSpace=wrap;container=0;movable=1;resizable=1;rotatable=1;deletable=1;editable=1;locked=0;connectable=1;" parent="1" vertex="1">
          <mxGeometry x="-940" y="397" width="644" height="385" as="geometry" />
        </mxCell>
        <mxCell id="mW3zMy_77x5YiZytnxg1-124" value="" style="vsdxID=5;fillColor=none;gradientColor=none;shape=stencil(vVPLEoIgFP0aljgEVuPa6j+YRGUica6U9vdhUKk4LWzG3X0cOPdcOIilTclrgShpDOiLaGVmSsQOiFJZlQKksRFiR8TSXIMoQN+qzOU175F9dNX3/obOnSP9CUoeLktIFL8KJ4flcLZN8NhtRJiDwxsf7VwhQHjAhniCDvNONhi04UbqakSuOBQCWy6cK16MWk0rRB2U/XRKVgMlSRwl+1nyhWI+s0+Xs4KYgNvPtlBKuJvVniX4En+9yfxWVpDx2yc2+Bosl0o5fw77U0PakjMzOz4B);strokeColor=#ff5958;spacingTop=-3;spacingBottom=-3;spacingLeft=-3;spacingRight=-3;points=[];labelBackgroundColor=none;rounded=0;html=1;whiteSpace=wrap;movable=1;resizable=1;rotatable=1;deletable=1;editable=1;locked=0;connectable=1;" parent="1" vertex="1">
          <mxGeometry x="-790" y="437" width="471" height="125" as="geometry" />
        </mxCell>
        <mxCell id="xm-ctFpzYZ5bEvGxBskp-83" value="&lt;div style=&quot;font-size: 1px&quot;&gt;&lt;font style=&quot;font-size:22.58px;font-family:Arial;color:#000000;direction:ltr;letter-spacing:0px;line-height:120%;opacity:1&quot;&gt;&lt;br&gt;&lt;/font&gt;&lt;/div&gt;" style="verticalAlign=middle;align=center;overflow=width;vsdxID=5;fillColor=#e3ebff;gradientColor=none;shape=stencil(vVNBDsIgEHwNRwxCjHqu+g9iaUtEaBa09fdSwdpi9dBDb8vOwOwsGcQyW/FaIEqsA3MRjcxdhdgBUSp1JUA6XyF2RCwrDIgSzE3n4VzzjtlVV3PvXmjDPdLdoOQRTrvtavNqnAKXw9mDELkBIhDJaxrJZIy/YRLfbjFvpcVgHHfS6JGu4lAK7GVwoXg5gmwjRP3VjoMpqQcm9tPKs0z0Y6crWcBHqt0PN8tJspXFfmNKdpaBH8tYwML/VPjiE6dCKhXSOMTT+PlWiC47PgE=);strokeColor=none;spacingTop=-3;spacingBottom=-3;spacingLeft=-3;spacingRight=-3;points=[];labelBackgroundColor=none;rounded=0;html=1;whiteSpace=wrap;" parent="1" vertex="1">
          <mxGeometry x="-958" y="204" width="1455" height="95" as="geometry" />
        </mxCell>
        <mxCell id="xm-ctFpzYZ5bEvGxBskp-88" value="&lt;font style=&quot;font-size: 50px;&quot;&gt;GLSB&lt;/font&gt;" style="verticalAlign=bottom;align=center;overflow=width;vsdxID=6;fillColor=none;gradientColor=none;strokeColor=none;spacingTop=-3;spacingBottom=-3;spacingLeft=-3;spacingRight=-3;points=[];labelBackgroundColor=none;rounded=0;html=1;whiteSpace=wrap;" parent="1" vertex="1">
          <mxGeometry x="-539" y="227" width="609" height="61" as="geometry" />
        </mxCell>
        <mxCell id="xm-ctFpzYZ5bEvGxBskp-82" value="" style="group" parent="1" vertex="1" connectable="0">
          <mxGeometry x="-323" y="9" width="152" height="130" as="geometry" />
        </mxCell>
        <mxCell id="xm-ctFpzYZ5bEvGxBskp-11" value="" style="aspect=fixed;sketch=0;html=1;dashed=0;whitespace=wrap;verticalLabelPosition=bottom;verticalAlign=top;fillColor=#2875E2;strokeColor=#ffffff;points=[[0.005,0.63,0],[0.1,0.2,0],[0.9,0.2,0],[0.5,0,0],[0.995,0.63,0],[0.72,0.99,0],[0.5,1,0],[0.28,0.99,0]];shape=mxgraph.kubernetes.icon2;prIcon=group;container=0;" parent="xm-ctFpzYZ5bEvGxBskp-82" vertex="1">
          <mxGeometry x="84" y="10" width="50" height="48" as="geometry" />
        </mxCell>
        <mxCell id="xm-ctFpzYZ5bEvGxBskp-12" style="vsdxID=5;fillColor=none;gradientColor=none;shape=stencil(vVPLEoIgFP0aljgEVuPa6j+YRGUica6U9vdhUKk4LWzG3X0cOPdcOIilTclrgShpDOiLaGVmSsQOiFJZlQKksRFiR8TSXIMoQN+qzOU175F9dNX3/obOnSP9CUoeLktIFL8KJ4flcLZN8NhtRJiDwxsf7VwhQHjAhniCDvNONhi04UbqakSuOBQCWy6cK16MWk0rRB2U/XRKVgMlSRwl+1nyhWI+s0+Xs4KYgNvPtlBKuJvVniX4En+9yfxWVpDx2yc2+Bosl0o5fw77U0PakjMzOz4B);strokeColor=#ff5958;spacingTop=-3;spacingBottom=-3;spacingLeft=-3;spacingRight=-3;points=[];labelBackgroundColor=none;rounded=0;html=1;whiteSpace=wrap;container=0;" parent="xm-ctFpzYZ5bEvGxBskp-82" vertex="1">
          <mxGeometry width="152" height="130" as="geometry" />
        </mxCell>
        <mxCell id="xm-ctFpzYZ5bEvGxBskp-13" value="&lt;div style=&quot;font-size: 1px&quot;&gt;&lt;font style=&quot;font-size:22.58px;font-family:Arial;color:#000000;direction:ltr;letter-spacing:0px;line-height:120%;opacity:1&quot;&gt;Браузер&amp;nbsp;&lt;/font&gt;&lt;/div&gt;&lt;div style=&quot;font-size: 1px&quot;&gt;&lt;font style=&quot;font-size:22.58px;font-family:Arial;color:#000000;direction:ltr;letter-spacing:0px;line-height:120%;opacity:1&quot;&gt;пользователя&lt;/font&gt;&lt;/div&gt;" style="verticalAlign=bottom;align=center;overflow=width;vsdxID=6;fillColor=none;gradientColor=none;strokeColor=none;spacingTop=-3;spacingBottom=-3;spacingLeft=-3;spacingRight=-3;points=[];labelBackgroundColor=none;rounded=0;html=1;whiteSpace=wrap;container=0;" parent="xm-ctFpzYZ5bEvGxBskp-82" vertex="1">
          <mxGeometry y="67" width="152" height="53" as="geometry" />
        </mxCell>
        <mxCell id="mW3zMy_77x5YiZytnxg1-102" style="rounded=0;orthogonalLoop=1;jettySize=auto;html=1;exitX=0.14;exitY=1.002;exitDx=0;exitDy=0;exitPerimeter=0;" parent="1" edge="1">
          <mxGeometry relative="1" as="geometry">
            <mxPoint x="-552" y="563" as="sourcePoint" />
            <mxPoint x="-552" y="611" as="targetPoint" />
          </mxGeometry>
        </mxCell>
        <mxCell id="mW3zMy_77x5YiZytnxg1-103" style="rounded=0;orthogonalLoop=1;jettySize=auto;html=1;exitX=0.14;exitY=1.002;exitDx=0;exitDy=0;exitPerimeter=0;" parent="1" edge="1">
          <mxGeometry relative="1" as="geometry">
            <mxPoint x="-382" y="563" as="sourcePoint" />
            <mxPoint x="-382" y="611" as="targetPoint" />
          </mxGeometry>
        </mxCell>
        <mxCell id="mW3zMy_77x5YiZytnxg1-105" value="" style="shape=image;verticalLabelPosition=bottom;verticalAlign=top;imageAspect=0;aspect=fixed;image=data:image/svg+xml,PHN2ZyB4bWxucz0iaHR0cDovL3d3dy53My5vcmcvMjAwMC9zdmciIHdpZHRoPSIzMiIgaGVpZ2h0PSIzMiIgdmlld0JveD0iMCAwIDMyIDMyIiBmaWxsPSJub25lIj4mI3hhOzxwYXRoIGQ9Ik0wIDE2QzAgNy4xNjM0NCA3LjE2MzQ0IDAgMTYgMFYwQzI0LjgzNjYgMCAzMiA3LjE2MzQ0IDMyIDE2VjE2QzMyIDI0LjgzNjYgMjQuODM2NiAzMiAxNiAzMlYzMkM3LjE2MzQ0IDMyIDAgMjQuODM2NiAwIDE2VjE2WiIgZmlsbD0iIzUyODJGRiIvPiYjeGE7PHBhdGggZD0iTTExLjk5NSAyNEw3LjAwMDk4IDE3LjczOEw4Ljc4MTk4IDkuOTI3TDE2IDYuNDUzTDIzLjIxOCA5LjkyOEwyNC45OTkgMTcuNzM5TDIwLjAwNSAyNEgxMS45OTVaTTIwIDEzLjE5NkwxNS45OTkgMTAuODk5TDEyIDEzLjE5NlYxOC4xTDE2IDIwLjQwMUwyMCAxOC4xVjEzLjE5NlpNMTguNzggMTMuODk2SDE4Ljc4N0wxNiAxNS40OTlMMTMuMjE0IDEzLjg5NUgxMy4yMTlMMTUuOTk5IDEyLjI5OUwxOC43OCAxMy44OTZaIiBmaWxsPSJ3aGl0ZSIvPiYjeGE7PC9zdmc+;container=0;" parent="1" vertex="1">
          <mxGeometry x="-895.3812951562873" y="496.15" width="27.69545454545455" height="27.69545454545455" as="geometry" />
        </mxCell>
        <mxCell id="mW3zMy_77x5YiZytnxg1-106" value="&lt;div style=&quot;font-size: 1px&quot;&gt;&lt;font style=&quot;font-size:22.58px;font-family:Arial;color:#000000;direction:ltr;letter-spacing:0px;line-height:120%;opacity:1&quot;&gt;Kubernetes&lt;br&gt;&lt;/font&gt;&lt;/div&gt;&lt;div style=&quot;font-size: 1px&quot;&gt;&lt;font style=&quot;font-size:22.58px;font-family:Arial;color:#000000;direction:ltr;letter-spacing:0px;line-height:120%;opacity:1&quot;&gt;cluster 2&lt;/font&gt;&lt;/div&gt;" style="verticalAlign=middle;align=center;overflow=width;vsdxID=7;fillColor=none;gradientColor=none;shape=stencil(nZBLDoAgDERP0z3SIyjew0SURgSD+Lu9kMZoXLhwN9O+tukAlrNpJg1SzDH4QW/URgNYgZTkjA4UkwJUgGXng+6DX1zLfmoymdXo17xh5zmRJ6Q42BWCfc2oJfdAr+Yv+AP9Cb7OJ3H/2JG1HNGz/84klThPVCc=);strokeColor=none;points=[];labelBackgroundColor=none;rounded=0;html=1;whiteSpace=wrap;container=0;" parent="1" vertex="1">
          <mxGeometry x="-930.1655929372465" y="410" width="118.01288475304223" height="86.13999999999999" as="geometry" />
        </mxCell>
        <mxCell id="mW3zMy_77x5YiZytnxg1-107" value="" style="group" parent="1" vertex="1" connectable="0">
          <mxGeometry x="-616" y="610" width="130" height="100" as="geometry" />
        </mxCell>
        <mxCell id="mW3zMy_77x5YiZytnxg1-108" value="" style="group" parent="mW3zMy_77x5YiZytnxg1-107" vertex="1" connectable="0">
          <mxGeometry x="-2" width="130" height="100" as="geometry" />
        </mxCell>
        <mxCell id="mW3zMy_77x5YiZytnxg1-109" value="" style="group" parent="mW3zMy_77x5YiZytnxg1-108" vertex="1" connectable="0">
          <mxGeometry width="130" height="100" as="geometry" />
        </mxCell>
        <mxCell id="mW3zMy_77x5YiZytnxg1-110" style="vsdxID=5;fillColor=none;gradientColor=none;shape=stencil(vVPLEoIgFP0aljgEVuPa6j+YRGUica6U9vdhUKk4LWzG3X0cOPdcOIilTclrgShpDOiLaGVmSsQOiFJZlQKksRFiR8TSXIMoQN+qzOU175F9dNX3/obOnSP9CUoeLktIFL8KJ4flcLZN8NhtRJiDwxsf7VwhQHjAhniCDvNONhi04UbqakSuOBQCWy6cK16MWk0rRB2U/XRKVgMlSRwl+1nyhWI+s0+Xs4KYgNvPtlBKuJvVniX4En+9yfxWVpDx2yc2+Bosl0o5fw77U0PakjMzOz4B);strokeColor=#ff5958;spacingTop=-3;spacingBottom=-3;spacingLeft=-3;spacingRight=-3;points=[];labelBackgroundColor=none;rounded=0;html=1;whiteSpace=wrap;container=0;movable=0;resizable=0;rotatable=0;deletable=0;editable=0;locked=1;connectable=0;" parent="mW3zMy_77x5YiZytnxg1-109" vertex="1">
          <mxGeometry width="130" height="100" as="geometry" />
        </mxCell>
        <mxCell id="mW3zMy_77x5YiZytnxg1-111" value="&lt;div style=&quot;font-size: 22.58px;&quot;&gt;&lt;font style=&quot;font-family: Arial; color: rgb(0, 0, 0); direction: ltr; letter-spacing: 0px; line-height: 120%; opacity: 1; font-size: 22.58px;&quot;&gt;InsureTech&lt;/font&gt;&lt;/div&gt;&lt;div style=&quot;font-size: 22.58px;&quot;&gt;&lt;font style=&quot;font-family: Arial; color: rgb(0, 0, 0); direction: ltr; letter-spacing: 0px; line-height: 120%; opacity: 1; font-size: 22.58px;&quot;&gt;namespace&lt;/font&gt;&lt;/div&gt;" style="verticalAlign=bottom;align=center;overflow=width;vsdxID=6;fillColor=none;gradientColor=none;strokeColor=none;spacingTop=-3;spacingBottom=-3;spacingLeft=-3;spacingRight=-3;points=[];labelBackgroundColor=none;rounded=0;html=1;whiteSpace=wrap;container=0;" parent="mW3zMy_77x5YiZytnxg1-109" vertex="1">
          <mxGeometry y="40" width="130" height="54" as="geometry" />
        </mxCell>
        <mxCell id="mW3zMy_77x5YiZytnxg1-112" value="" style="shape=image;verticalLabelPosition=bottom;verticalAlign=top;imageAspect=0;aspect=fixed;image=data:image/svg+xml,PHN2ZyB4bWxucz0iaHR0cDovL3d3dy53My5vcmcvMjAwMC9zdmciIHdpZHRoPSIzMiIgaGVpZ2h0PSIzMiIgdmlld0JveD0iMCAwIDMyIDMyIiBmaWxsPSJub25lIj4mI3hhOzxwYXRoIGQ9Ik0wIDE2QzAgNy4xNjM0NCA3LjE2MzQ0IDAgMTYgMFYwQzI0LjgzNjYgMCAzMiA3LjE2MzQ0IDMyIDE2VjE2QzMyIDI0LjgzNjYgMjQuODM2NiAzMiAxNiAzMlYzMkM3LjE2MzQ0IDMyIDAgMjQuODM2NiAwIDE2VjE2WiIgZmlsbD0iIzUyODJGRiIvPiYjeGE7PHBhdGggZD0iTTExLjk5NSAyNEw3LjAwMDk4IDE3LjczOEw4Ljc4MTk4IDkuOTI3TDE2IDYuNDUzTDIzLjIxOCA5LjkyOEwyNC45OTkgMTcuNzM5TDIwLjAwNSAyNEgxMS45OTVaTTIwIDEzLjE5NkwxNS45OTkgMTAuODk5TDEyIDEzLjE5NlYxOC4xTDE2IDIwLjQwMUwyMCAxOC4xVjEzLjE5NlpNMTguNzggMTMuODk2SDE4Ljc4N0wxNiAxNS40OTlMMTMuMjE0IDEzLjg5NUgxMy4yMTlMMTUuOTk5IDEyLjI5OUwxOC43OCAxMy44OTZaIiBmaWxsPSJ3aGl0ZSIvPiYjeGE7PC9zdmc+;container=0;" parent="mW3zMy_77x5YiZytnxg1-108" vertex="1">
          <mxGeometry x="64" y="10" width="28.571428571428573" height="28.571428571428573" as="geometry" />
        </mxCell>
        <mxCell id="mW3zMy_77x5YiZytnxg1-113" value="" style="group" parent="1" vertex="1" connectable="0">
          <mxGeometry x="-790" y="610" width="130" height="100" as="geometry" />
        </mxCell>
        <mxCell id="mW3zMy_77x5YiZytnxg1-114" value="" style="group" parent="mW3zMy_77x5YiZytnxg1-113" vertex="1" connectable="0">
          <mxGeometry width="130" height="100" as="geometry" />
        </mxCell>
        <mxCell id="mW3zMy_77x5YiZytnxg1-115" style="vsdxID=5;fillColor=none;gradientColor=none;shape=stencil(vVPLEoIgFP0aljgEVuPa6j+YRGUica6U9vdhUKk4LWzG3X0cOPdcOIilTclrgShpDOiLaGVmSsQOiFJZlQKksRFiR8TSXIMoQN+qzOU175F9dNX3/obOnSP9CUoeLktIFL8KJ4flcLZN8NhtRJiDwxsf7VwhQHjAhniCDvNONhi04UbqakSuOBQCWy6cK16MWk0rRB2U/XRKVgMlSRwl+1nyhWI+s0+Xs4KYgNvPtlBKuJvVniX4En+9yfxWVpDx2yc2+Bosl0o5fw77U0PakjMzOz4B);strokeColor=#ff5958;spacingTop=-3;spacingBottom=-3;spacingLeft=-3;spacingRight=-3;points=[];labelBackgroundColor=none;rounded=0;html=1;whiteSpace=wrap;container=0;movable=0;resizable=0;rotatable=0;deletable=0;editable=0;locked=1;connectable=0;" parent="mW3zMy_77x5YiZytnxg1-114" vertex="1">
          <mxGeometry width="130" height="100" as="geometry" />
        </mxCell>
        <mxCell id="mW3zMy_77x5YiZytnxg1-116" value="&lt;div style=&quot;font-size: 1px&quot;&gt;&lt;font style=&quot;font-size:22.58px;font-family:Arial;color:#000000;direction:ltr;letter-spacing:0px;line-height:120%;opacity:1&quot;&gt;InsureTech&lt;/font&gt;&lt;/div&gt;&lt;div style=&quot;font-size: 1px&quot;&gt;&lt;font style=&quot;font-size:22.58px;font-family:Arial;color:#000000;direction:ltr;letter-spacing:0px;line-height:120%;opacity:1&quot;&gt;namespace&lt;/font&gt;&lt;/div&gt;" style="verticalAlign=bottom;align=center;overflow=width;vsdxID=6;fillColor=none;gradientColor=none;strokeColor=none;spacingTop=-3;spacingBottom=-3;spacingLeft=-3;spacingRight=-3;points=[];labelBackgroundColor=none;rounded=0;html=1;whiteSpace=wrap;container=0;" parent="mW3zMy_77x5YiZytnxg1-114" vertex="1">
          <mxGeometry y="40" width="130" height="54" as="geometry" />
        </mxCell>
        <mxCell id="mW3zMy_77x5YiZytnxg1-117" style="rounded=0;orthogonalLoop=1;jettySize=auto;html=1;exitX=0.14;exitY=1.002;exitDx=0;exitDy=0;exitPerimeter=0;" parent="mW3zMy_77x5YiZytnxg1-114" source="mW3zMy_77x5YiZytnxg1-124" edge="1">
          <mxGeometry relative="1" as="geometry">
            <mxPoint x="67" y="-66" as="sourcePoint" />
            <mxPoint x="66" as="targetPoint" />
          </mxGeometry>
        </mxCell>
        <mxCell id="mW3zMy_77x5YiZytnxg1-118" value="" style="shape=image;verticalLabelPosition=bottom;verticalAlign=top;imageAspect=0;aspect=fixed;image=data:image/svg+xml,PHN2ZyB4bWxucz0iaHR0cDovL3d3dy53My5vcmcvMjAwMC9zdmciIHdpZHRoPSIzMiIgaGVpZ2h0PSIzMiIgdmlld0JveD0iMCAwIDMyIDMyIiBmaWxsPSJub25lIj4mI3hhOzxwYXRoIGQ9Ik0wIDE2QzAgNy4xNjM0NCA3LjE2MzQ0IDAgMTYgMFYwQzI0LjgzNjYgMCAzMiA3LjE2MzQ0IDMyIDE2VjE2QzMyIDI0LjgzNjYgMjQuODM2NiAzMiAxNiAzMlYzMkM3LjE2MzQ0IDMyIDAgMjQuODM2NiAwIDE2VjE2WiIgZmlsbD0iIzUyODJGRiIvPiYjeGE7PHBhdGggZD0iTTExLjk5NSAyNEw3LjAwMDk4IDE3LjczOEw4Ljc4MTk4IDkuOTI3TDE2IDYuNDUzTDIzLjIxOCA5LjkyOEwyNC45OTkgMTcuNzM5TDIwLjAwNSAyNEgxMS45OTVaTTIwIDEzLjE5NkwxNS45OTkgMTAuODk5TDEyIDEzLjE5NlYxOC4xTDE2IDIwLjQwMUwyMCAxOC4xVjEzLjE5NlpNMTguNzggMTMuODk2SDE4Ljc4N0wxNiAxNS40OTlMMTMuMjE0IDEzLjg5NUgxMy4yMTlMMTUuOTk5IDEyLjI5OUwxOC43OCAxMy44OTZaIiBmaWxsPSJ3aGl0ZSIvPiYjeGE7PC9zdmc+;container=0;" parent="mW3zMy_77x5YiZytnxg1-113" vertex="1">
          <mxGeometry x="65" y="10" width="28.571428571428573" height="28.571428571428573" as="geometry" />
        </mxCell>
        <mxCell id="mW3zMy_77x5YiZytnxg1-119" value="" style="group" parent="1" vertex="1" connectable="0">
          <mxGeometry x="-450" y="610" width="130" height="100" as="geometry" />
        </mxCell>
        <mxCell id="mW3zMy_77x5YiZytnxg1-120" value="" style="group" parent="mW3zMy_77x5YiZytnxg1-119" vertex="1" connectable="0">
          <mxGeometry width="130" height="100" as="geometry" />
        </mxCell>
        <mxCell id="mW3zMy_77x5YiZytnxg1-121" style="vsdxID=5;fillColor=none;gradientColor=none;shape=stencil(vVPLEoIgFP0aljgEVuPa6j+YRGUica6U9vdhUKk4LWzG3X0cOPdcOIilTclrgShpDOiLaGVmSsQOiFJZlQKksRFiR8TSXIMoQN+qzOU175F9dNX3/obOnSP9CUoeLktIFL8KJ4flcLZN8NhtRJiDwxsf7VwhQHjAhniCDvNONhi04UbqakSuOBQCWy6cK16MWk0rRB2U/XRKVgMlSRwl+1nyhWI+s0+Xs4KYgNvPtlBKuJvVniX4En+9yfxWVpDx2yc2+Bosl0o5fw77U0PakjMzOz4B);strokeColor=#ff5958;spacingTop=-3;spacingBottom=-3;spacingLeft=-3;spacingRight=-3;points=[];labelBackgroundColor=none;rounded=0;html=1;whiteSpace=wrap;container=0;movable=0;resizable=0;rotatable=0;deletable=0;editable=0;locked=1;connectable=0;" parent="mW3zMy_77x5YiZytnxg1-120" vertex="1">
          <mxGeometry width="130" height="100" as="geometry" />
        </mxCell>
        <mxCell id="mW3zMy_77x5YiZytnxg1-122" value="&lt;div style=&quot;font-size: 1px&quot;&gt;&lt;font style=&quot;font-size:22.58px;font-family:Arial;color:#000000;direction:ltr;letter-spacing:0px;line-height:120%;opacity:1&quot;&gt;InsureTech&lt;/font&gt;&lt;/div&gt;&lt;div style=&quot;font-size: 1px&quot;&gt;&lt;font style=&quot;font-size:22.58px;font-family:Arial;color:#000000;direction:ltr;letter-spacing:0px;line-height:120%;opacity:1&quot;&gt;namespace&lt;/font&gt;&lt;/div&gt;" style="verticalAlign=bottom;align=center;overflow=width;vsdxID=6;fillColor=none;gradientColor=none;strokeColor=none;spacingTop=-3;spacingBottom=-3;spacingLeft=-3;spacingRight=-3;points=[];labelBackgroundColor=none;rounded=0;html=1;whiteSpace=wrap;container=0;" parent="mW3zMy_77x5YiZytnxg1-120" vertex="1">
          <mxGeometry y="40" width="130" height="54" as="geometry" />
        </mxCell>
        <mxCell id="mW3zMy_77x5YiZytnxg1-123" value="" style="shape=image;verticalLabelPosition=bottom;verticalAlign=top;imageAspect=0;aspect=fixed;image=data:image/svg+xml,PHN2ZyB4bWxucz0iaHR0cDovL3d3dy53My5vcmcvMjAwMC9zdmciIHdpZHRoPSIzMiIgaGVpZ2h0PSIzMiIgdmlld0JveD0iMCAwIDMyIDMyIiBmaWxsPSJub25lIj4mI3hhOzxwYXRoIGQ9Ik0wIDE2QzAgNy4xNjM0NCA3LjE2MzQ0IDAgMTYgMFYwQzI0LjgzNjYgMCAzMiA3LjE2MzQ0IDMyIDE2VjE2QzMyIDI0LjgzNjYgMjQuODM2NiAzMiAxNiAzMlYzMkM3LjE2MzQ0IDMyIDAgMjQuODM2NiAwIDE2VjE2WiIgZmlsbD0iIzUyODJGRiIvPiYjeGE7PHBhdGggZD0iTTExLjk5NSAyNEw3LjAwMDk4IDE3LjczOEw4Ljc4MTk4IDkuOTI3TDE2IDYuNDUzTDIzLjIxOCA5LjkyOEwyNC45OTkgMTcuNzM5TDIwLjAwNSAyNEgxMS45OTVaTTIwIDEzLjE5NkwxNS45OTkgMTAuODk5TDEyIDEzLjE5NlYxOC4xTDE2IDIwLjQwMUwyMCAxOC4xVjEzLjE5NlpNMTguNzggMTMuODk2SDE4Ljc4N0wxNiAxNS40OTlMMTMuMjE0IDEzLjg5NUgxMy4yMTlMMTUuOTk5IDEyLjI5OUwxOC43OCAxMy44OTZaIiBmaWxsPSJ3aGl0ZSIvPiYjeGE7PC9zdmc+;container=0;" parent="mW3zMy_77x5YiZytnxg1-119" vertex="1">
          <mxGeometry x="65" y="10" width="28.571428571428573" height="28.571428571428573" as="geometry" />
        </mxCell>
        <mxCell id="mW3zMy_77x5YiZytnxg1-126" value="&lt;div&gt;Haproxy&lt;/div&gt;" style="text;html=1;align=center;verticalAlign=middle;whiteSpace=wrap;rounded=0;fontSize=22.58;" parent="1" vertex="1">
          <mxGeometry x="-655.5" y="484.5" width="202" height="30" as="geometry" />
        </mxCell>
        <mxCell id="mW3zMy_77x5YiZytnxg1-127" style="rounded=0;orthogonalLoop=1;jettySize=auto;html=1;edgeStyle=orthogonalEdgeStyle;endArrow=none;endFill=0;" parent="1" edge="1">
          <mxGeometry relative="1" as="geometry">
            <mxPoint x="-723" y="710" as="sourcePoint" />
            <mxPoint x="-526" y="841" as="targetPoint" />
            <Array as="points">
              <mxPoint x="-723" y="711" />
              <mxPoint x="-724" y="711" />
              <mxPoint x="-724" y="751" />
              <mxPoint x="-526" y="751" />
              <mxPoint x="-526" y="841" />
            </Array>
          </mxGeometry>
        </mxCell>
        <mxCell id="mW3zMy_77x5YiZytnxg1-128" style="rounded=0;orthogonalLoop=1;jettySize=auto;html=1;edgeStyle=orthogonalEdgeStyle;endArrow=none;endFill=0;" parent="1" edge="1">
          <mxGeometry relative="1" as="geometry">
            <mxPoint x="-553" y="710" as="sourcePoint" />
            <mxPoint x="-526" y="843" as="targetPoint" />
            <Array as="points">
              <mxPoint x="-553" y="711" />
              <mxPoint x="-554" y="711" />
              <mxPoint x="-554" y="751" />
              <mxPoint x="-526" y="751" />
              <mxPoint x="-526" y="843" />
            </Array>
          </mxGeometry>
        </mxCell>
        <mxCell id="mW3zMy_77x5YiZytnxg1-132" style="rounded=0;orthogonalLoop=1;jettySize=auto;html=1;exitX=0.155;exitY=1;exitDx=0;exitDy=0;exitPerimeter=0;entryX=0.53;entryY=-0.001;entryDx=0;entryDy=0;entryPerimeter=0;horizontal=1;" parent="1" target="mW3zMy_77x5YiZytnxg1-104" edge="1">
          <mxGeometry relative="1" as="geometry">
            <mxPoint x="-597.9300000000003" y="277.5" as="sourcePoint" />
            <mxPoint x="-599" y="367" as="targetPoint" />
          </mxGeometry>
        </mxCell>
        <mxCell id="vkw-Ax_-UTGGCQjabBwA-17" value="Health check" style="edgeLabel;html=1;align=center;verticalAlign=middle;resizable=0;points=[];" vertex="1" connectable="0" parent="mW3zMy_77x5YiZytnxg1-132">
          <mxGeometry x="-0.1858" y="1" relative="1" as="geometry">
            <mxPoint as="offset" />
          </mxGeometry>
        </mxCell>
        <mxCell id="mW3zMy_77x5YiZytnxg1-94" style="vsdxID=5;fillColor=none;gradientColor=none;shape=stencil(vVPLEoIgFP0aljgEVuPa6j+YRGUica6U9vdhUKk4LWzG3X0cOPdcOIilTclrgShpDOiLaGVmSsQOiFJZlQKksRFiR8TSXIMoQN+qzOU175F9dNX3/obOnSP9CUoeLktIFL8KJ4flcLZN8NhtRJiDwxsf7VwhQHjAhniCDvNONhi04UbqakSuOBQCWy6cK16MWk0rRB2U/XRKVgMlSRwl+1nyhWI+s0+Xs4KYgNvPtlBKuJvVniX4En+9yfxWVpDx2yc2+Bosl0o5fw77U0PakjMzOz4B);strokeColor=#ff5958;spacingTop=-3;spacingBottom=-3;spacingLeft=-3;spacingRight=-3;points=[];labelBackgroundColor=none;rounded=0;html=1;whiteSpace=wrap;container=0;" parent="1" vertex="1">
          <mxGeometry x="-605" y="863.11" width="130" height="105.5" as="geometry" />
        </mxCell>
        <mxCell id="mW3zMy_77x5YiZytnxg1-95" value="&lt;div style=&quot;font-size: 1px&quot;&gt;&lt;font style=&quot;font-size:22.58px;font-family:Arial;color:#000000;direction:ltr;letter-spacing:0px;line-height:120%;opacity:1&quot;&gt;PosrgreSQL&lt;br&gt;(master)&lt;/font&gt;&lt;/div&gt;" style="verticalAlign=bottom;align=center;overflow=width;vsdxID=6;fillColor=none;gradientColor=none;strokeColor=none;spacingTop=-3;spacingBottom=-3;spacingLeft=-3;spacingRight=-3;points=[];labelBackgroundColor=none;rounded=0;html=1;whiteSpace=wrap;container=0;" parent="1" vertex="1">
          <mxGeometry x="-605" y="908.11" width="130" height="53.21" as="geometry" />
        </mxCell>
        <mxCell id="mW3zMy_77x5YiZytnxg1-96" value="" style="shape=image;verticalLabelPosition=bottom;verticalAlign=top;imageAspect=0;aspect=fixed;image=data:image/svg+xml,PHN2ZyB4bWxucz0iaHR0cDovL3d3dy53My5vcmcvMjAwMC9zdmciIHdpZHRoPSIzMiIgaGVpZ2h0PSIzMiIgdmlld0JveD0iMCAwIDMyIDMyIiBmaWxsPSJub25lIj4mI3hhOzxwYXRoIGQ9Ik0wIDE2QzAgNy4xNjM0NCA3LjE2MzQ0IDAgMTYgMFYwQzI0LjgzNjYgMCAzMiA3LjE2MzQ0IDMyIDE2VjE2QzMyIDI0LjgzNjYgMjQuODM2NiAzMiAxNiAzMlYzMkM3LjE2MzQ0IDMyIDAgMjQuODM2NiAwIDE2VjE2WiIgZmlsbD0iIzUyODJGRiIvPiYjeGE7PHBhdGggZmlsbC1ydWxlPSJldmVub2RkIiBjbGlwLXJ1bGU9ImV2ZW5vZGQiIGQ9Ik0xMyA4SDE4QzIxLjMgOCAyNCAxMC43IDI0IDE0VjI0SDIwVjIwSDIyVjE5SDE4LjZDMTUuNSAxOSAxMyAxNi41IDEzIDEzLjRWOFpNMTkgMTdIMjFWMTVIMTlWMTdaTTEyIDkuMDk5OThWMTMuNEMxMiAxNi44IDE0LjYgMTkuNyAxOCAyMC4xVjIwLjZDMTggMjIgMTUuOCAyMy4xIDEzIDIzLjFDMTAuMiAyMy4xIDggMjIgOCAyMC42VjExLjZDOCAxMC4zIDkuNyA5LjI5OTk4IDEyIDkuMDk5OThaIiBmaWxsPSJ3aGl0ZSIvPiYjeGE7PC9zdmc+;container=0;" parent="1" vertex="1">
          <mxGeometry x="-560.5" y="867.11" width="36.26923076923077" height="36.26923076923077" as="geometry" />
        </mxCell>
        <mxCell id="mW3zMy_77x5YiZytnxg1-45" value="" style="group" parent="1" vertex="1" connectable="0">
          <mxGeometry x="-9" y="840" width="320" height="136.71000000000004" as="geometry" />
        </mxCell>
        <mxCell id="mW3zMy_77x5YiZytnxg1-50" style="vsdxID=5;fillColor=none;gradientColor=none;shape=stencil(vVPLEoIgFP0aljgEVuPa6j+YRGUica6U9vdhUKk4LWzG3X0cOPdcOIilTclrgShpDOiLaGVmSsQOiFJZlQKksRFiR8TSXIMoQN+qzOU175F9dNX3/obOnSP9CUoeLktIFL8KJ4flcLZN8NhtRJiDwxsf7VwhQHjAhniCDvNONhi04UbqakSuOBQCWy6cK16MWk0rRB2U/XRKVgMlSRwl+1nyhWI+s0+Xs4KYgNvPtlBKuJvVniX4En+9yfxWVpDx2yc2+Bosl0o5fw77U0PakjMzOz4B);strokeColor=#ff5958;spacingTop=-3;spacingBottom=-3;spacingLeft=-3;spacingRight=-3;points=[];labelBackgroundColor=none;rounded=0;html=1;whiteSpace=wrap;container=0;" parent="mW3zMy_77x5YiZytnxg1-45" vertex="1">
          <mxGeometry x="183" y="22.110000000000014" width="130" height="105.5" as="geometry" />
        </mxCell>
        <mxCell id="mW3zMy_77x5YiZytnxg1-51" value="&lt;div style=&quot;font-size: 1px&quot;&gt;&lt;font style=&quot;font-size:22.58px;font-family:Arial;color:#000000;direction:ltr;letter-spacing:0px;line-height:120%;opacity:1&quot;&gt;PosrgreSQL&lt;br&gt;&lt;/font&gt;&lt;/div&gt;&lt;div style=&quot;font-size: 1px&quot;&gt;&lt;font style=&quot;font-size:22.58px;font-family:Arial;color:#000000;direction:ltr;letter-spacing:0px;line-height:120%;opacity:1&quot;&gt;(master)&lt;/font&gt;&lt;/div&gt;" style="verticalAlign=bottom;align=center;overflow=width;vsdxID=6;fillColor=none;gradientColor=none;strokeColor=none;spacingTop=-3;spacingBottom=-3;spacingLeft=-3;spacingRight=-3;points=[];labelBackgroundColor=none;rounded=0;html=1;whiteSpace=wrap;container=0;" parent="mW3zMy_77x5YiZytnxg1-45" vertex="1">
          <mxGeometry x="183" y="67.11000000000001" width="130" height="53.21" as="geometry" />
        </mxCell>
        <mxCell id="mW3zMy_77x5YiZytnxg1-52" value="" style="shape=image;verticalLabelPosition=bottom;verticalAlign=top;imageAspect=0;aspect=fixed;image=data:image/svg+xml,PHN2ZyB4bWxucz0iaHR0cDovL3d3dy53My5vcmcvMjAwMC9zdmciIHdpZHRoPSIzMiIgaGVpZ2h0PSIzMiIgdmlld0JveD0iMCAwIDMyIDMyIiBmaWxsPSJub25lIj4mI3hhOzxwYXRoIGQ9Ik0wIDE2QzAgNy4xNjM0NCA3LjE2MzQ0IDAgMTYgMFYwQzI0LjgzNjYgMCAzMiA3LjE2MzQ0IDMyIDE2VjE2QzMyIDI0LjgzNjYgMjQuODM2NiAzMiAxNiAzMlYzMkM3LjE2MzQ0IDMyIDAgMjQuODM2NiAwIDE2VjE2WiIgZmlsbD0iIzUyODJGRiIvPiYjeGE7PHBhdGggZmlsbC1ydWxlPSJldmVub2RkIiBjbGlwLXJ1bGU9ImV2ZW5vZGQiIGQ9Ik0xMyA4SDE4QzIxLjMgOCAyNCAxMC43IDI0IDE0VjI0SDIwVjIwSDIyVjE5SDE4LjZDMTUuNSAxOSAxMyAxNi41IDEzIDEzLjRWOFpNMTkgMTdIMjFWMTVIMTlWMTdaTTEyIDkuMDk5OThWMTMuNEMxMiAxNi44IDE0LjYgMTkuNyAxOCAyMC4xVjIwLjZDMTggMjIgMTUuOCAyMy4xIDEzIDIzLjFDMTAuMiAyMy4xIDggMjIgOCAyMC42VjExLjZDOCAxMC4zIDkuNyA5LjI5OTk4IDEyIDkuMDk5OThaIiBmaWxsPSJ3aGl0ZSIvPiYjeGE7PC9zdmc+;container=0;" parent="mW3zMy_77x5YiZytnxg1-45" vertex="1">
          <mxGeometry x="227.5" y="26.110000000000014" width="36.26923076923077" height="36.26923076923077" as="geometry" />
        </mxCell>
        <mxCell id="mW3zMy_77x5YiZytnxg1-85" style="rounded=0;orthogonalLoop=1;jettySize=auto;html=1;edgeStyle=orthogonalEdgeStyle;endArrow=none;endFill=0;" parent="mW3zMy_77x5YiZytnxg1-45" edge="1">
          <mxGeometry relative="1" as="geometry">
            <mxPoint x="400" y="-130.89" as="sourcePoint" />
            <mxPoint x="245" y="21" as="targetPoint" />
            <Array as="points">
              <mxPoint x="400" y="-90" />
              <mxPoint x="245" y="-90" />
              <mxPoint x="245" y="19" />
              <mxPoint x="245" y="19" />
            </Array>
          </mxGeometry>
        </mxCell>
        <mxCell id="mW3zMy_77x5YiZytnxg1-58" style="rounded=0;orthogonalLoop=1;jettySize=auto;html=1;exitX=0.14;exitY=1.002;exitDx=0;exitDy=0;exitPerimeter=0;" parent="1" edge="1">
          <mxGeometry relative="1" as="geometry">
            <mxPoint x="227" y="563" as="sourcePoint" />
            <mxPoint x="227" y="611" as="targetPoint" />
          </mxGeometry>
        </mxCell>
        <mxCell id="mW3zMy_77x5YiZytnxg1-59" style="rounded=0;orthogonalLoop=1;jettySize=auto;html=1;exitX=0.14;exitY=1.002;exitDx=0;exitDy=0;exitPerimeter=0;" parent="1" edge="1">
          <mxGeometry relative="1" as="geometry">
            <mxPoint x="397" y="563" as="sourcePoint" />
            <mxPoint x="397" y="611" as="targetPoint" />
          </mxGeometry>
        </mxCell>
        <mxCell id="mW3zMy_77x5YiZytnxg1-61" value="" style="shape=image;verticalLabelPosition=bottom;verticalAlign=top;imageAspect=0;aspect=fixed;image=data:image/svg+xml,PHN2ZyB4bWxucz0iaHR0cDovL3d3dy53My5vcmcvMjAwMC9zdmciIHdpZHRoPSIzMiIgaGVpZ2h0PSIzMiIgdmlld0JveD0iMCAwIDMyIDMyIiBmaWxsPSJub25lIj4mI3hhOzxwYXRoIGQ9Ik0wIDE2QzAgNy4xNjM0NCA3LjE2MzQ0IDAgMTYgMFYwQzI0LjgzNjYgMCAzMiA3LjE2MzQ0IDMyIDE2VjE2QzMyIDI0LjgzNjYgMjQuODM2NiAzMiAxNiAzMlYzMkM3LjE2MzQ0IDMyIDAgMjQuODM2NiAwIDE2VjE2WiIgZmlsbD0iIzUyODJGRiIvPiYjeGE7PHBhdGggZD0iTTExLjk5NSAyNEw3LjAwMDk4IDE3LjczOEw4Ljc4MTk4IDkuOTI3TDE2IDYuNDUzTDIzLjIxOCA5LjkyOEwyNC45OTkgMTcuNzM5TDIwLjAwNSAyNEgxMS45OTVaTTIwIDEzLjE5NkwxNS45OTkgMTAuODk5TDEyIDEzLjE5NlYxOC4xTDE2IDIwLjQwMUwyMCAxOC4xVjEzLjE5NlpNMTguNzggMTMuODk2SDE4Ljc4N0wxNiAxNS40OTlMMTMuMjE0IDEzLjg5NUgxMy4yMTlMMTUuOTk5IDEyLjI5OUwxOC43OCAxMy44OTZaIiBmaWxsPSJ3aGl0ZSIvPiYjeGE7PC9zdmc+;container=0;" parent="1" vertex="1">
          <mxGeometry x="-116.38129515628725" y="496.15" width="27.69545454545455" height="27.69545454545455" as="geometry" />
        </mxCell>
        <mxCell id="mW3zMy_77x5YiZytnxg1-62" value="&lt;div style=&quot;font-size: 1px&quot;&gt;&lt;font style=&quot;font-size:22.58px;font-family:Arial;color:#000000;direction:ltr;letter-spacing:0px;line-height:120%;opacity:1&quot;&gt;Kubernetes&lt;br&gt;&lt;/font&gt;&lt;/div&gt;&lt;div style=&quot;font-size: 1px&quot;&gt;&lt;font style=&quot;font-size:22.58px;font-family:Arial;color:#000000;direction:ltr;letter-spacing:0px;line-height:120%;opacity:1&quot;&gt;cluster 1&lt;/font&gt;&lt;/div&gt;" style="verticalAlign=middle;align=center;overflow=width;vsdxID=7;fillColor=none;gradientColor=none;shape=stencil(nZBLDoAgDERP0z3SIyjew0SURgSD+Lu9kMZoXLhwN9O+tukAlrNpJg1SzDH4QW/URgNYgZTkjA4UkwJUgGXng+6DX1zLfmoymdXo17xh5zmRJ6Q42BWCfc2oJfdAr+Yv+AP9Cb7OJ3H/2JG1HNGz/84klThPVCc=);strokeColor=none;points=[];labelBackgroundColor=none;rounded=0;html=1;whiteSpace=wrap;container=0;" parent="1" vertex="1">
          <mxGeometry x="-151.16559293724652" y="410" width="118.01288475304223" height="86.13999999999999" as="geometry" />
        </mxCell>
        <mxCell id="mW3zMy_77x5YiZytnxg1-63" value="" style="group" parent="1" vertex="1" connectable="0">
          <mxGeometry x="163" y="610" width="130" height="100" as="geometry" />
        </mxCell>
        <mxCell id="mW3zMy_77x5YiZytnxg1-64" value="" style="group" parent="mW3zMy_77x5YiZytnxg1-63" vertex="1" connectable="0">
          <mxGeometry x="-2" width="130" height="100" as="geometry" />
        </mxCell>
        <mxCell id="mW3zMy_77x5YiZytnxg1-65" value="" style="group" parent="mW3zMy_77x5YiZytnxg1-64" vertex="1" connectable="0">
          <mxGeometry width="130" height="100" as="geometry" />
        </mxCell>
        <mxCell id="mW3zMy_77x5YiZytnxg1-66" style="vsdxID=5;fillColor=none;gradientColor=none;shape=stencil(vVPLEoIgFP0aljgEVuPa6j+YRGUica6U9vdhUKk4LWzG3X0cOPdcOIilTclrgShpDOiLaGVmSsQOiFJZlQKksRFiR8TSXIMoQN+qzOU175F9dNX3/obOnSP9CUoeLktIFL8KJ4flcLZN8NhtRJiDwxsf7VwhQHjAhniCDvNONhi04UbqakSuOBQCWy6cK16MWk0rRB2U/XRKVgMlSRwl+1nyhWI+s0+Xs4KYgNvPtlBKuJvVniX4En+9yfxWVpDx2yc2+Bosl0o5fw77U0PakjMzOz4B);strokeColor=#ff5958;spacingTop=-3;spacingBottom=-3;spacingLeft=-3;spacingRight=-3;points=[];labelBackgroundColor=none;rounded=0;html=1;whiteSpace=wrap;container=0;movable=0;resizable=0;rotatable=0;deletable=0;editable=0;locked=1;connectable=0;" parent="mW3zMy_77x5YiZytnxg1-65" vertex="1">
          <mxGeometry width="130" height="100" as="geometry" />
        </mxCell>
        <mxCell id="mW3zMy_77x5YiZytnxg1-67" value="&lt;div style=&quot;font-size: 22.58px;&quot;&gt;&lt;font style=&quot;font-family: Arial; color: rgb(0, 0, 0); direction: ltr; letter-spacing: 0px; line-height: 120%; opacity: 1; font-size: 22.58px;&quot;&gt;InsureTech&lt;/font&gt;&lt;/div&gt;&lt;div style=&quot;font-size: 22.58px;&quot;&gt;&lt;font style=&quot;font-family: Arial; color: rgb(0, 0, 0); direction: ltr; letter-spacing: 0px; line-height: 120%; opacity: 1; font-size: 22.58px;&quot;&gt;namespace&lt;/font&gt;&lt;/div&gt;" style="verticalAlign=bottom;align=center;overflow=width;vsdxID=6;fillColor=none;gradientColor=none;strokeColor=none;spacingTop=-3;spacingBottom=-3;spacingLeft=-3;spacingRight=-3;points=[];labelBackgroundColor=none;rounded=0;html=1;whiteSpace=wrap;container=0;" parent="mW3zMy_77x5YiZytnxg1-65" vertex="1">
          <mxGeometry y="40" width="130" height="54" as="geometry" />
        </mxCell>
        <mxCell id="mW3zMy_77x5YiZytnxg1-68" value="" style="shape=image;verticalLabelPosition=bottom;verticalAlign=top;imageAspect=0;aspect=fixed;image=data:image/svg+xml,PHN2ZyB4bWxucz0iaHR0cDovL3d3dy53My5vcmcvMjAwMC9zdmciIHdpZHRoPSIzMiIgaGVpZ2h0PSIzMiIgdmlld0JveD0iMCAwIDMyIDMyIiBmaWxsPSJub25lIj4mI3hhOzxwYXRoIGQ9Ik0wIDE2QzAgNy4xNjM0NCA3LjE2MzQ0IDAgMTYgMFYwQzI0LjgzNjYgMCAzMiA3LjE2MzQ0IDMyIDE2VjE2QzMyIDI0LjgzNjYgMjQuODM2NiAzMiAxNiAzMlYzMkM3LjE2MzQ0IDMyIDAgMjQuODM2NiAwIDE2VjE2WiIgZmlsbD0iIzUyODJGRiIvPiYjeGE7PHBhdGggZD0iTTExLjk5NSAyNEw3LjAwMDk4IDE3LjczOEw4Ljc4MTk4IDkuOTI3TDE2IDYuNDUzTDIzLjIxOCA5LjkyOEwyNC45OTkgMTcuNzM5TDIwLjAwNSAyNEgxMS45OTVaTTIwIDEzLjE5NkwxNS45OTkgMTAuODk5TDEyIDEzLjE5NlYxOC4xTDE2IDIwLjQwMUwyMCAxOC4xVjEzLjE5NlpNMTguNzggMTMuODk2SDE4Ljc4N0wxNiAxNS40OTlMMTMuMjE0IDEzLjg5NUgxMy4yMTlMMTUuOTk5IDEyLjI5OUwxOC43OCAxMy44OTZaIiBmaWxsPSJ3aGl0ZSIvPiYjeGE7PC9zdmc+;container=0;" parent="mW3zMy_77x5YiZytnxg1-64" vertex="1">
          <mxGeometry x="64" y="10" width="28.571428571428573" height="28.571428571428573" as="geometry" />
        </mxCell>
        <mxCell id="mW3zMy_77x5YiZytnxg1-69" value="" style="group" parent="1" vertex="1" connectable="0">
          <mxGeometry x="-11" y="610" width="130" height="100" as="geometry" />
        </mxCell>
        <mxCell id="mW3zMy_77x5YiZytnxg1-70" value="" style="group" parent="mW3zMy_77x5YiZytnxg1-69" vertex="1" connectable="0">
          <mxGeometry width="130" height="100" as="geometry" />
        </mxCell>
        <mxCell id="mW3zMy_77x5YiZytnxg1-71" style="vsdxID=5;fillColor=none;gradientColor=none;shape=stencil(vVPLEoIgFP0aljgEVuPa6j+YRGUica6U9vdhUKk4LWzG3X0cOPdcOIilTclrgShpDOiLaGVmSsQOiFJZlQKksRFiR8TSXIMoQN+qzOU175F9dNX3/obOnSP9CUoeLktIFL8KJ4flcLZN8NhtRJiDwxsf7VwhQHjAhniCDvNONhi04UbqakSuOBQCWy6cK16MWk0rRB2U/XRKVgMlSRwl+1nyhWI+s0+Xs4KYgNvPtlBKuJvVniX4En+9yfxWVpDx2yc2+Bosl0o5fw77U0PakjMzOz4B);strokeColor=#ff5958;spacingTop=-3;spacingBottom=-3;spacingLeft=-3;spacingRight=-3;points=[];labelBackgroundColor=none;rounded=0;html=1;whiteSpace=wrap;container=0;movable=0;resizable=0;rotatable=0;deletable=0;editable=0;locked=1;connectable=0;" parent="mW3zMy_77x5YiZytnxg1-70" vertex="1">
          <mxGeometry width="130" height="100" as="geometry" />
        </mxCell>
        <mxCell id="mW3zMy_77x5YiZytnxg1-72" value="&lt;div style=&quot;font-size: 1px&quot;&gt;&lt;font style=&quot;font-size:22.58px;font-family:Arial;color:#000000;direction:ltr;letter-spacing:0px;line-height:120%;opacity:1&quot;&gt;InsureTech&lt;/font&gt;&lt;/div&gt;&lt;div style=&quot;font-size: 1px&quot;&gt;&lt;font style=&quot;font-size:22.58px;font-family:Arial;color:#000000;direction:ltr;letter-spacing:0px;line-height:120%;opacity:1&quot;&gt;namespace&lt;/font&gt;&lt;/div&gt;" style="verticalAlign=bottom;align=center;overflow=width;vsdxID=6;fillColor=none;gradientColor=none;strokeColor=none;spacingTop=-3;spacingBottom=-3;spacingLeft=-3;spacingRight=-3;points=[];labelBackgroundColor=none;rounded=0;html=1;whiteSpace=wrap;container=0;" parent="mW3zMy_77x5YiZytnxg1-70" vertex="1">
          <mxGeometry y="40" width="130" height="54" as="geometry" />
        </mxCell>
        <mxCell id="mW3zMy_77x5YiZytnxg1-73" style="rounded=0;orthogonalLoop=1;jettySize=auto;html=1;exitX=0.14;exitY=1.002;exitDx=0;exitDy=0;exitPerimeter=0;" parent="mW3zMy_77x5YiZytnxg1-70" source="mW3zMy_77x5YiZytnxg1-80" edge="1">
          <mxGeometry relative="1" as="geometry">
            <mxPoint x="67" y="-66" as="sourcePoint" />
            <mxPoint x="66" as="targetPoint" />
          </mxGeometry>
        </mxCell>
        <mxCell id="mW3zMy_77x5YiZytnxg1-74" value="" style="shape=image;verticalLabelPosition=bottom;verticalAlign=top;imageAspect=0;aspect=fixed;image=data:image/svg+xml,PHN2ZyB4bWxucz0iaHR0cDovL3d3dy53My5vcmcvMjAwMC9zdmciIHdpZHRoPSIzMiIgaGVpZ2h0PSIzMiIgdmlld0JveD0iMCAwIDMyIDMyIiBmaWxsPSJub25lIj4mI3hhOzxwYXRoIGQ9Ik0wIDE2QzAgNy4xNjM0NCA3LjE2MzQ0IDAgMTYgMFYwQzI0LjgzNjYgMCAzMiA3LjE2MzQ0IDMyIDE2VjE2QzMyIDI0LjgzNjYgMjQuODM2NiAzMiAxNiAzMlYzMkM3LjE2MzQ0IDMyIDAgMjQuODM2NiAwIDE2VjE2WiIgZmlsbD0iIzUyODJGRiIvPiYjeGE7PHBhdGggZD0iTTExLjk5NSAyNEw3LjAwMDk4IDE3LjczOEw4Ljc4MTk4IDkuOTI3TDE2IDYuNDUzTDIzLjIxOCA5LjkyOEwyNC45OTkgMTcuNzM5TDIwLjAwNSAyNEgxMS45OTVaTTIwIDEzLjE5NkwxNS45OTkgMTAuODk5TDEyIDEzLjE5NlYxOC4xTDE2IDIwLjQwMUwyMCAxOC4xVjEzLjE5NlpNMTguNzggMTMuODk2SDE4Ljc4N0wxNiAxNS40OTlMMTMuMjE0IDEzLjg5NUgxMy4yMTlMMTUuOTk5IDEyLjI5OUwxOC43OCAxMy44OTZaIiBmaWxsPSJ3aGl0ZSIvPiYjeGE7PC9zdmc+;container=0;" parent="mW3zMy_77x5YiZytnxg1-69" vertex="1">
          <mxGeometry x="65" y="10" width="28.571428571428573" height="28.571428571428573" as="geometry" />
        </mxCell>
        <mxCell id="mW3zMy_77x5YiZytnxg1-75" value="" style="group" parent="1" vertex="1" connectable="0">
          <mxGeometry x="329" y="610" width="130" height="100" as="geometry" />
        </mxCell>
        <mxCell id="mW3zMy_77x5YiZytnxg1-76" value="" style="group" parent="mW3zMy_77x5YiZytnxg1-75" vertex="1" connectable="0">
          <mxGeometry width="130" height="100" as="geometry" />
        </mxCell>
        <mxCell id="mW3zMy_77x5YiZytnxg1-77" style="vsdxID=5;fillColor=none;gradientColor=none;shape=stencil(vVPLEoIgFP0aljgEVuPa6j+YRGUica6U9vdhUKk4LWzG3X0cOPdcOIilTclrgShpDOiLaGVmSsQOiFJZlQKksRFiR8TSXIMoQN+qzOU175F9dNX3/obOnSP9CUoeLktIFL8KJ4flcLZN8NhtRJiDwxsf7VwhQHjAhniCDvNONhi04UbqakSuOBQCWy6cK16MWk0rRB2U/XRKVgMlSRwl+1nyhWI+s0+Xs4KYgNvPtlBKuJvVniX4En+9yfxWVpDx2yc2+Bosl0o5fw77U0PakjMzOz4B);strokeColor=#ff5958;spacingTop=-3;spacingBottom=-3;spacingLeft=-3;spacingRight=-3;points=[];labelBackgroundColor=none;rounded=0;html=1;whiteSpace=wrap;container=0;movable=0;resizable=0;rotatable=0;deletable=0;editable=0;locked=1;connectable=0;" parent="mW3zMy_77x5YiZytnxg1-76" vertex="1">
          <mxGeometry width="130" height="100" as="geometry" />
        </mxCell>
        <mxCell id="mW3zMy_77x5YiZytnxg1-78" value="&lt;div style=&quot;font-size: 1px&quot;&gt;&lt;font style=&quot;font-size:22.58px;font-family:Arial;color:#000000;direction:ltr;letter-spacing:0px;line-height:120%;opacity:1&quot;&gt;InsureTech&lt;/font&gt;&lt;/div&gt;&lt;div style=&quot;font-size: 1px&quot;&gt;&lt;font style=&quot;font-size:22.58px;font-family:Arial;color:#000000;direction:ltr;letter-spacing:0px;line-height:120%;opacity:1&quot;&gt;namespace&lt;/font&gt;&lt;/div&gt;" style="verticalAlign=bottom;align=center;overflow=width;vsdxID=6;fillColor=none;gradientColor=none;strokeColor=none;spacingTop=-3;spacingBottom=-3;spacingLeft=-3;spacingRight=-3;points=[];labelBackgroundColor=none;rounded=0;html=1;whiteSpace=wrap;container=0;" parent="mW3zMy_77x5YiZytnxg1-76" vertex="1">
          <mxGeometry y="40" width="130" height="54" as="geometry" />
        </mxCell>
        <mxCell id="mW3zMy_77x5YiZytnxg1-79" value="" style="shape=image;verticalLabelPosition=bottom;verticalAlign=top;imageAspect=0;aspect=fixed;image=data:image/svg+xml,PHN2ZyB4bWxucz0iaHR0cDovL3d3dy53My5vcmcvMjAwMC9zdmciIHdpZHRoPSIzMiIgaGVpZ2h0PSIzMiIgdmlld0JveD0iMCAwIDMyIDMyIiBmaWxsPSJub25lIj4mI3hhOzxwYXRoIGQ9Ik0wIDE2QzAgNy4xNjM0NCA3LjE2MzQ0IDAgMTYgMFYwQzI0LjgzNjYgMCAzMiA3LjE2MzQ0IDMyIDE2VjE2QzMyIDI0LjgzNjYgMjQuODM2NiAzMiAxNiAzMlYzMkM3LjE2MzQ0IDMyIDAgMjQuODM2NiAwIDE2VjE2WiIgZmlsbD0iIzUyODJGRiIvPiYjeGE7PHBhdGggZD0iTTExLjk5NSAyNEw3LjAwMDk4IDE3LjczOEw4Ljc4MTk4IDkuOTI3TDE2IDYuNDUzTDIzLjIxOCA5LjkyOEwyNC45OTkgMTcuNzM5TDIwLjAwNSAyNEgxMS45OTVaTTIwIDEzLjE5NkwxNS45OTkgMTAuODk5TDEyIDEzLjE5NlYxOC4xTDE2IDIwLjQwMUwyMCAxOC4xVjEzLjE5NlpNMTguNzggMTMuODk2SDE4Ljc4N0wxNiAxNS40OTlMMTMuMjE0IDEzLjg5NUgxMy4yMTlMMTUuOTk5IDEyLjI5OUwxOC43OCAxMy44OTZaIiBmaWxsPSJ3aGl0ZSIvPiYjeGE7PC9zdmc+;container=0;" parent="mW3zMy_77x5YiZytnxg1-75" vertex="1">
          <mxGeometry x="65" y="10" width="28.571428571428573" height="28.571428571428573" as="geometry" />
        </mxCell>
        <mxCell id="mW3zMy_77x5YiZytnxg1-82" value="&lt;div&gt;Haproxy&lt;/div&gt;&lt;div&gt;&lt;br&gt;&lt;/div&gt;" style="text;html=1;align=center;verticalAlign=middle;whiteSpace=wrap;rounded=0;fontSize=22.58;" parent="1" vertex="1">
          <mxGeometry x="158" y="499" width="133" height="30" as="geometry" />
        </mxCell>
        <mxCell id="mW3zMy_77x5YiZytnxg1-83" style="rounded=0;orthogonalLoop=1;jettySize=auto;html=1;edgeStyle=orthogonalEdgeStyle;entryX=0.482;entryY=0.002;entryDx=0;entryDy=0;entryPerimeter=0;" parent="1" target="mW3zMy_77x5YiZytnxg1-50" edge="1">
          <mxGeometry relative="1" as="geometry">
            <mxPoint x="56" y="710" as="sourcePoint" />
            <mxPoint x="148" y="844" as="targetPoint" />
            <Array as="points">
              <mxPoint x="56" y="711" />
              <mxPoint x="55" y="711" />
              <mxPoint x="55" y="751" />
              <mxPoint x="236" y="751" />
              <mxPoint x="236" y="863" />
            </Array>
          </mxGeometry>
        </mxCell>
        <mxCell id="mW3zMy_77x5YiZytnxg1-84" style="rounded=0;orthogonalLoop=1;jettySize=auto;html=1;edgeStyle=orthogonalEdgeStyle;endArrow=none;endFill=0;" parent="1" edge="1">
          <mxGeometry relative="1" as="geometry">
            <mxPoint x="226" y="710" as="sourcePoint" />
            <mxPoint x="236" y="862" as="targetPoint" />
            <Array as="points">
              <mxPoint x="226" y="711" />
              <mxPoint x="225" y="711" />
              <mxPoint x="225" y="751" />
              <mxPoint x="236" y="751" />
            </Array>
          </mxGeometry>
        </mxCell>
        <mxCell id="HlJHgFVcDTPW6L8RVwm2-1" value="&lt;div&gt;TCP&lt;/div&gt;" style="edgeLabel;html=1;align=center;verticalAlign=middle;resizable=0;points=[];fontSize=12;" parent="mW3zMy_77x5YiZytnxg1-84" vertex="1" connectable="0">
          <mxGeometry x="0.222" relative="1" as="geometry">
            <mxPoint x="1" y="-32" as="offset" />
          </mxGeometry>
        </mxCell>
        <mxCell id="mW3zMy_77x5YiZytnxg1-135" style="rounded=0;orthogonalLoop=1;jettySize=auto;html=1;edgeStyle=orthogonalEdgeStyle;entryX=0.165;entryY=0.003;entryDx=0;entryDy=0;entryPerimeter=0;" parent="1" target="mW3zMy_77x5YiZytnxg1-50" edge="1">
          <mxGeometry relative="1" as="geometry">
            <mxPoint x="-388" y="710" as="sourcePoint" />
            <mxPoint x="-192" y="894" as="targetPoint" />
            <Array as="points">
              <mxPoint x="-388" y="751" />
              <mxPoint x="-222" y="751" />
              <mxPoint x="-222" y="819" />
              <mxPoint x="196" y="819" />
            </Array>
          </mxGeometry>
        </mxCell>
        <mxCell id="HlJHgFVcDTPW6L8RVwm2-3" value="&lt;div&gt;TCP&lt;/div&gt;" style="edgeLabel;html=1;align=center;verticalAlign=middle;resizable=0;points=[];fontSize=12;" parent="mW3zMy_77x5YiZytnxg1-135" vertex="1" connectable="0">
          <mxGeometry x="0.0404" relative="1" as="geometry">
            <mxPoint as="offset" />
          </mxGeometry>
        </mxCell>
        <mxCell id="mW3zMy_77x5YiZytnxg1-129" style="rounded=0;orthogonalLoop=1;jettySize=auto;html=1;edgeStyle=orthogonalEdgeStyle;" parent="1" edge="1">
          <mxGeometry relative="1" as="geometry">
            <mxPoint x="-388" y="710" as="sourcePoint" />
            <mxPoint x="-526" y="863" as="targetPoint" />
            <Array as="points">
              <mxPoint x="-388" y="751" />
              <mxPoint x="-526" y="751" />
            </Array>
          </mxGeometry>
        </mxCell>
        <mxCell id="mW3zMy_77x5YiZytnxg1-130" value="TCP" style="edgeLabel;html=1;align=center;verticalAlign=middle;resizable=0;points=[];fontSize=12;" parent="mW3zMy_77x5YiZytnxg1-129" vertex="1" connectable="0">
          <mxGeometry x="0.8054" relative="1" as="geometry">
            <mxPoint x="1" y="-23" as="offset" />
          </mxGeometry>
        </mxCell>
        <mxCell id="mW3zMy_77x5YiZytnxg1-133" style="rounded=0;orthogonalLoop=1;jettySize=auto;html=1;exitX=0.155;exitY=1;exitDx=0;exitDy=0;exitPerimeter=0;entryX=0.53;entryY=-0.001;entryDx=0;entryDy=0;entryPerimeter=0;horizontal=1;" parent="1" edge="1">
          <mxGeometry relative="1" as="geometry">
            <mxPoint x="172" y="278" as="sourcePoint" />
            <mxPoint x="171" y="397" as="targetPoint" />
          </mxGeometry>
        </mxCell>
        <mxCell id="vkw-Ax_-UTGGCQjabBwA-18" value="Health Check" style="edgeLabel;html=1;align=center;verticalAlign=middle;resizable=0;points=[];" vertex="1" connectable="0" parent="mW3zMy_77x5YiZytnxg1-133">
          <mxGeometry x="0.0583" y="4" relative="1" as="geometry">
            <mxPoint as="offset" />
          </mxGeometry>
        </mxCell>
        <mxCell id="HlJHgFVcDTPW6L8RVwm2-6" style="rounded=0;orthogonalLoop=1;jettySize=auto;html=1;horizontal=1;startArrow=classic;startFill=1;endArrow=none;endFill=0;" parent="1" edge="1">
          <mxGeometry relative="1" as="geometry">
            <mxPoint x="-475" y="947" as="sourcePoint" />
            <mxPoint x="174" y="946" as="targetPoint" />
          </mxGeometry>
        </mxCell>
        <mxCell id="HlJHgFVcDTPW6L8RVwm2-7" value="Репликация" style="edgeLabel;html=1;align=center;verticalAlign=middle;resizable=0;points=[];fontSize=12;" parent="HlJHgFVcDTPW6L8RVwm2-6" vertex="1" connectable="0">
          <mxGeometry x="-0.2153" y="-3" relative="1" as="geometry">
            <mxPoint y="-4" as="offset" />
          </mxGeometry>
        </mxCell>
        <mxCell id="HlJHgFVcDTPW6L8RVwm2-18" style="rounded=0;orthogonalLoop=1;jettySize=auto;html=1;exitX=0.586;exitY=0.977;exitDx=0;exitDy=0;exitPerimeter=0;entryX=0.498;entryY=0.063;entryDx=0;entryDy=0;entryPerimeter=0;horizontal=1;" parent="1" target="xm-ctFpzYZ5bEvGxBskp-83" edge="1" source="xm-ctFpzYZ5bEvGxBskp-12">
          <mxGeometry relative="1" as="geometry">
            <mxPoint x="174" y="-184" as="sourcePoint" />
            <mxPoint x="-18.713999999999942" y="144.16800000000012" as="targetPoint" />
          </mxGeometry>
        </mxCell>
        <mxCell id="vkw-Ax_-UTGGCQjabBwA-8" value="" style="shape=image;verticalLabelPosition=bottom;labelBackgroundColor=#ffffff;verticalAlign=top;aspect=fixed;imageAspect=0;image=data:image/svg+xml,PHN2ZyB4bWxucz0iaHR0cDovL3d3dy53My5vcmcvMjAwMC9zdmciIHdpZHRoPSIzMiIgaGVpZ2h0PSIzMiIgdmlld0JveD0iMCAwIDMyIDMyIiBmaWxsPSJub25lIj4mI3hhOzxwYXRoIGQ9Ik0xNiAzMkMyNC44MzY2IDMyIDMyIDI0LjgzNjYgMzIgMTZDMzIgNy4xNjM0NCAyNC44MzY2IDAgMTYgMEM3LjE2MzQ0IDAgMCA3LjE2MzQ0IDAgMTZDMCAyNC44MzY2IDcuMTYzNDQgMzIgMTYgMzJaIiBmaWxsPSIjNTI4MkZGIi8+JiN4YTs8cGF0aCBmaWxsLXJ1bGU9ImV2ZW5vZGQiIGNsaXAtcnVsZT0iZXZlbm9kZCIgZD0iTTIzLjI0NjEgMjRWMjAuMDU1N0wyMS44Nzg3IDIxLjE0NjVMMTkuMjIyOSAxNy43NTU5QzE5LjU5MTUgMTcuMjU3NiAxOS44MDk0IDE2LjY0MSAxOS44MDk0IDE1Ljk3MzZDMTkuODA5NCAxNS44NDY0IDE5LjgwMTUgMTUuNzIxMSAxOS43ODYyIDE1LjU5ODFMMjEuMzgxOCAxNC45NzkxTDIyLjAxMzIgMTYuNjI0MUwyMy45OTk1IDEzLjIzMDVMMjAuMjUyNiAxMi4wMzc2TDIwLjg4IDEzLjY3MjFMMTkuMjkxNyAxNC4yODgzQzE4Ljc1MTkgMTMuNDk0OCAxNy44NDE1IDEyLjk3MzYgMTYuODA5NCAxMi45NzM2QzE2Ljc2NzggMTIuOTczNiAxNi43MjY0IDEyLjk3NDQgMTYuNjg1MiAxMi45NzYxTDE1LjkzNyAxMC43MDgyTDE3LjYyMDUgMTAuMTYxMkwxNC4zMzU0IDhMMTIuOTQ4MSAxMS42NzkzTDE0LjYwNTUgMTEuMTQwOEwxNS4zMzc1IDEzLjM1ODlDMTQuNjI3IDEzLjc1OTcgMTQuMDk2MyAxNC40NDE4IDEzLjg5NjMgMTUuMjUzOUwxMy44OTY2IDE1LjI1MjhMMTEuODcxMiAxNS4yNTI0QzExLjU4NzQgMTQuNDk0MSAxMC44NTYyIDEzLjk1NDMgOS45OTg5IDEzLjk1NDNDOC44OTUyMSAxMy45NTQzIDguMDAwNDkgMTQuODQ5IDguMDAwNDkgMTUuOTUyN0M4LjAwMDQ5IDE3LjA1NjQgOC44OTUyMSAxNy45NTExIDkuOTk4OSAxNy45NTExQzEwLjg1NjQgMTcuOTUxMSAxMS41ODc4IDE3LjQxMSAxMS44NzE0IDE2LjY1MjRMMTMuODg2NiAxNi42NTI4QzE0LjA0MDcgMTcuMzE4OSAxNC40MTY2IDE3Ljg5OTcgMTQuOTMyMyAxOC4zMTM5TDE0LjkzMTQgMTguMzEzM0wxNC4wMjkyIDIwLjA4MTFMMTIuNDczNiAxOS4yODU5TDEzLjI2MzEgMjMuMTM4TDE2Ljg0OCAyMS41MjIxTDE1LjI3NTggMjAuNzE4NEwxNi4xOTggMTguOTExM0wxNi4xOTcgMTguOTExMUMxNi4zOTQ3IDE4Ljk1MjEgMTYuNTk5NiAxOC45NzM2IDE2LjgwOTQgMTguOTczNkMxNy4yOTE2IDE4Ljk3MzYgMTcuNzQ3MiAxOC44NTk4IDE4LjE1MDkgMTguNjU3N0wyMC43ODQyIDIyLjAxOTVMMTkuNDA1NSAyMy4xMTkzTDIzLjI0NjEgMjRaTTE2LjgwOTQgMTQuMzczNkMxNy42OTMxIDE0LjM3MzYgMTguNDA5NCAxNS4wODk5IDE4LjQwOTQgMTUuOTczNkMxOC40MDk0IDE2Ljg1NzMgMTcuNjkzMSAxNy41NzM2IDE2LjgwOTQgMTcuNTczNkMxNS45MjU4IDE3LjU3MzYgMTUuMjA5NCAxNi44NTczIDE1LjIwOTQgMTUuOTczNkMxNS4yMDk0IDE1LjA4OTkgMTUuOTI1OCAxNC4zNzM2IDE2LjgwOTQgMTQuMzczNloiIGZpbGw9IndoaXRlIi8+JiN4YTs8L3N2Zz4=;container=0;" vertex="1" parent="1">
          <mxGeometry x="28" y="468" width="61" height="61" as="geometry" />
        </mxCell>
        <mxCell id="vkw-Ax_-UTGGCQjabBwA-7" value="" style="shape=image;verticalLabelPosition=bottom;labelBackgroundColor=#ffffff;verticalAlign=top;aspect=fixed;imageAspect=0;image=data:image/svg+xml,PHN2ZyB4bWxucz0iaHR0cDovL3d3dy53My5vcmcvMjAwMC9zdmciIHdpZHRoPSIzMiIgaGVpZ2h0PSIzMiIgdmlld0JveD0iMCAwIDMyIDMyIiBmaWxsPSJub25lIj4mI3hhOzxwYXRoIGQ9Ik0xNiAzMkMyNC44MzY2IDMyIDMyIDI0LjgzNjYgMzIgMTZDMzIgNy4xNjM0NCAyNC44MzY2IDAgMTYgMEM3LjE2MzQ0IDAgMCA3LjE2MzQ0IDAgMTZDMCAyNC44MzY2IDcuMTYzNDQgMzIgMTYgMzJaIiBmaWxsPSIjNTI4MkZGIi8+JiN4YTs8cGF0aCBmaWxsLXJ1bGU9ImV2ZW5vZGQiIGNsaXAtcnVsZT0iZXZlbm9kZCIgZD0iTTIzLjI0NjEgMjRWMjAuMDU1N0wyMS44Nzg3IDIxLjE0NjVMMTkuMjIyOSAxNy43NTU5QzE5LjU5MTUgMTcuMjU3NiAxOS44MDk0IDE2LjY0MSAxOS44MDk0IDE1Ljk3MzZDMTkuODA5NCAxNS44NDY0IDE5LjgwMTUgMTUuNzIxMSAxOS43ODYyIDE1LjU5ODFMMjEuMzgxOCAxNC45NzkxTDIyLjAxMzIgMTYuNjI0MUwyMy45OTk1IDEzLjIzMDVMMjAuMjUyNiAxMi4wMzc2TDIwLjg4IDEzLjY3MjFMMTkuMjkxNyAxNC4yODgzQzE4Ljc1MTkgMTMuNDk0OCAxNy44NDE1IDEyLjk3MzYgMTYuODA5NCAxMi45NzM2QzE2Ljc2NzggMTIuOTczNiAxNi43MjY0IDEyLjk3NDQgMTYuNjg1MiAxMi45NzYxTDE1LjkzNyAxMC43MDgyTDE3LjYyMDUgMTAuMTYxMkwxNC4zMzU0IDhMMTIuOTQ4MSAxMS42NzkzTDE0LjYwNTUgMTEuMTQwOEwxNS4zMzc1IDEzLjM1ODlDMTQuNjI3IDEzLjc1OTcgMTQuMDk2MyAxNC40NDE4IDEzLjg5NjMgMTUuMjUzOUwxMy44OTY2IDE1LjI1MjhMMTEuODcxMiAxNS4yNTI0QzExLjU4NzQgMTQuNDk0MSAxMC44NTYyIDEzLjk1NDMgOS45OTg5IDEzLjk1NDNDOC44OTUyMSAxMy45NTQzIDguMDAwNDkgMTQuODQ5IDguMDAwNDkgMTUuOTUyN0M4LjAwMDQ5IDE3LjA1NjQgOC44OTUyMSAxNy45NTExIDkuOTk4OSAxNy45NTExQzEwLjg1NjQgMTcuOTUxMSAxMS41ODc4IDE3LjQxMSAxMS44NzE0IDE2LjY1MjRMMTMuODg2NiAxNi42NTI4QzE0LjA0MDcgMTcuMzE4OSAxNC40MTY2IDE3Ljg5OTcgMTQuOTMyMyAxOC4zMTM5TDE0LjkzMTQgMTguMzEzM0wxNC4wMjkyIDIwLjA4MTFMMTIuNDczNiAxOS4yODU5TDEzLjI2MzEgMjMuMTM4TDE2Ljg0OCAyMS41MjIxTDE1LjI3NTggMjAuNzE4NEwxNi4xOTggMTguOTExM0wxNi4xOTcgMTguOTExMUMxNi4zOTQ3IDE4Ljk1MjEgMTYuNTk5NiAxOC45NzM2IDE2LjgwOTQgMTguOTczNkMxNy4yOTE2IDE4Ljk3MzYgMTcuNzQ3MiAxOC44NTk4IDE4LjE1MDkgMTguNjU3N0wyMC43ODQyIDIyLjAxOTVMMTkuNDA1NSAyMy4xMTkzTDIzLjI0NjEgMjRaTTE2LjgwOTQgMTQuMzczNkMxNy42OTMxIDE0LjM3MzYgMTguNDA5NCAxNS4wODk5IDE4LjQwOTQgMTUuOTczNkMxOC40MDk0IDE2Ljg1NzMgMTcuNjkzMSAxNy41NzM2IDE2LjgwOTQgMTcuNTczNkMxNS45MjU4IDE3LjU3MzYgMTUuMjA5NCAxNi44NTczIDE1LjIwOTQgMTUuOTczNkMxNS4yMDk0IDE1LjA4OTkgMTUuOTI1OCAxNC4zNzM2IDE2LjgwOTQgMTQuMzczNloiIGZpbGw9IndoaXRlIi8+JiN4YTs8L3N2Zz4=;container=0;" vertex="1" parent="1">
          <mxGeometry x="-749.44" y="465" width="67" height="67" as="geometry" />
        </mxCell>
        <mxCell id="vkw-Ax_-UTGGCQjabBwA-11" style="edgeStyle=orthogonalEdgeStyle;rounded=0;orthogonalLoop=1;jettySize=auto;html=1;exitX=0.5;exitY=1;exitDx=0;exitDy=0;entryX=0.501;entryY=0.815;entryDx=0;entryDy=0;entryPerimeter=0;" edge="1" parent="1" source="mW3zMy_77x5YiZytnxg1-96" target="mW3zMy_77x5YiZytnxg1-96">
          <mxGeometry relative="1" as="geometry" />
        </mxCell>
        <mxCell id="vkw-Ax_-UTGGCQjabBwA-12" style="edgeStyle=orthogonalEdgeStyle;rounded=0;orthogonalLoop=1;jettySize=auto;html=1;exitX=0.5;exitY=1;exitDx=0;exitDy=0;entryX=0.501;entryY=0.815;entryDx=0;entryDy=0;entryPerimeter=0;" edge="1" parent="1">
          <mxGeometry relative="1" as="geometry">
            <mxPoint x="-532" y="913" as="sourcePoint" />
            <mxPoint x="-532" y="907" as="targetPoint" />
          </mxGeometry>
        </mxCell>
        <mxCell id="vkw-Ax_-UTGGCQjabBwA-13" value="" style="shape=image;verticalLabelPosition=bottom;verticalAlign=top;imageAspect=0;aspect=fixed;image=data:image/svg+xml,PHN2ZyB4bWxucz0iaHR0cDovL3d3dy53My5vcmcvMjAwMC9zdmciIHdpZHRoPSIzMiIgaGVpZ2h0PSIzMiIgdmlld0JveD0iMCAwIDMyIDMyIiBmaWxsPSJub25lIj4mI3hhOzxwYXRoIGQ9Ik0wIDE2QzAgNy4xNjM0NCA3LjE2MzQ0IDAgMTYgMFYwQzI0LjgzNjYgMCAzMiA3LjE2MzQ0IDMyIDE2VjE2QzMyIDI0LjgzNjYgMjQuODM2NiAzMiAxNiAzMlYzMkM3LjE2MzQ0IDMyIDAgMjQuODM2NiAwIDE2VjE2WiIgZmlsbD0iIzUyODJGRiIvPiYjeGE7PHBhdGggZmlsbC1ydWxlPSJldmVub2RkIiBjbGlwLXJ1bGU9ImV2ZW5vZGQiIGQ9Ik0xMyA4SDE4QzIxLjMgOCAyNCAxMC43IDI0IDE0VjI0SDIwVjIwSDIyVjE5SDE4LjZDMTUuNSAxOSAxMyAxNi41IDEzIDEzLjRWOFpNMTkgMTdIMjFWMTVIMTlWMTdaTTEyIDkuMDk5OThWMTMuNEMxMiAxNi44IDE0LjYgMTkuNyAxOCAyMC4xVjIwLjZDMTggMjIgMTUuOCAyMy4xIDEzIDIzLjFDMTAuMiAyMy4xIDggMjIgOCAyMC42VjExLjZDOCAxMC4zIDkuNyA5LjI5OTk4IDEyIDkuMDk5OThaIiBmaWxsPSJ3aGl0ZSIvPiYjeGE7PC9zdmc+;container=0;" vertex="1" parent="1">
          <mxGeometry x="-984" y="981" width="36.26923076923077" height="36.26923076923077" as="geometry" />
        </mxCell>
        <mxCell id="vkw-Ax_-UTGGCQjabBwA-9" style="vsdxID=6;fillColor=none;gradientColor=none;shape=stencil(vVNdD4IgFP01POIQms1nq//BEpVF4q6U9u/DoFJxPdjm2/04cO65cBDL2oo3AlHSGtAX0cncVIgdEKWyrgRIYyPEjohlhQZRgr7VucsbPiCH6Krvww29O0eGE5Q8XJaSaPcqnByWw9k2wWNZRFMHhzc+SlwhQHhATDxBj3kvWwzacCN1PSFXHEqBLRcuFC8nrbYTognKfjol65GSNIn28SL5SjGf2efL2UBMwO1nWykl3M1mzxJ8ib/eZHkrG8j47RMbfA1WSKWcP8f9uSFtyZmZHZ8=);strokeColor=#5282ff;spacingTop=-3;spacingBottom=-3;spacingLeft=-3;spacingRight=-3;points=[];labelBackgroundColor=none;rounded=0;html=1;whiteSpace=wrap;container=0;movable=1;resizable=1;rotatable=1;deletable=1;editable=1;locked=0;connectable=1;" vertex="1" parent="1">
          <mxGeometry x="-994" y="793" width="1534" height="243" as="geometry" />
        </mxCell>
        <mxCell id="vkw-Ax_-UTGGCQjabBwA-15" value="&lt;div align=&quot;left&quot;&gt;&lt;font style=&quot;font-size: 14px;&quot;&gt;Будут использоваться независимые кластера, поднятые в разных регионах&lt;br&gt;&lt;/font&gt;&lt;/div&gt;&lt;div align=&quot;left&quot;&gt;&lt;font style=&quot;font-size: 14px;&quot;&gt;Для обеспечение георграфической доступности, повышение отказоучстойчивости&lt;/font&gt;&lt;/div&gt;&lt;div align=&quot;left&quot;&gt;&lt;font style=&quot;font-size: 14px;&quot;&gt;&lt;br&gt;&lt;/font&gt;&lt;/div&gt;&lt;div align=&quot;left&quot;&gt;&lt;font style=&quot;font-size: 14px;&quot;&gt;Active-Active - в каждой зоне доступности полностью &lt;br&gt;&lt;/font&gt;&lt;div&gt;&lt;font style=&quot;font-size: 14px;&quot;&gt;функциональное приложение. В нормальном состоянии в каждой зоне &lt;br&gt;автоматическим горизонтальным масштабированием держится минимальный &lt;br&gt;набор сервисов, но при отказе трафик перейдет на другие зоны и &lt;br&gt;автоматическое масштабирование нарастит силы оставшихся зон&lt;/font&gt;&lt;/div&gt;&lt;div&gt;&lt;font style=&quot;font-size: 14px;&quot;&gt;&lt;br&gt;&lt;/font&gt;&lt;/div&gt;&lt;div&gt;&lt;font style=&quot;font-size: 14px;&quot;&gt;Для репликации и резервного копирования стоит использовать partoni&lt;br&gt;pgBackRest - резервное копирование, репликация между кластерами потоковая&lt;br&gt;&lt;/font&gt;&lt;/div&gt;&lt;div&gt;&lt;font style=&quot;font-size: 14px;&quot;&gt;&lt;br&gt;&lt;/font&gt;&lt;/div&gt;&lt;div&gt;&lt;font style=&quot;font-size: 14px;&quot;&gt;Шардирование применяться не будет, так как данных не так уж много - база данных на 50 гигабайт суммарно. &lt;/font&gt;&lt;/div&gt;&lt;/div&gt;" style="text;html=1;align=left;verticalAlign=middle;whiteSpace=wrap;rounded=0;" vertex="1" parent="1">
          <mxGeometry x="749" y="328" width="525" height="343" as="geometry" />
        </mxCell>
      </root>
    </mxGraphModel>
  </diagram>
</mxfile>
